:FULLY-SPECIFIED
:FORCE-ALL-JOINTS-BE-3DOF
:DEGREES
1
root 6.24314 16.836 -28.1378 9.0217 -2.52979 -3.05774
lfemur -20.3712 2.30257 -19.9954
ltibia 35.927 0 0
lfoot -38.654 3.93715 0
ltoes 38.9541 0 0
rfemur -19.4747 0.22019 19.5256
rtibia 36.0342 0 0
rfoot -30.3779 -10.4967 0
rtoes 21.4483 0 0
lowerback -2.05144 3.66971 -5.03766
upperback -2.66728 5.00355 3.49279
thorax -2.36397 2.67023 6.42441
lowerneck -9.84699 -2.36864 1.94815
upperneck -1.37933 -3.32542 -1.65382
head 1.16433 -1.69823 -0.975663
lclavicle -1.65488e-14 -3.69739e-14 0
lhumerus -41.7253 -10.8128 99.8312
lradius 34.5094 0 0
lwrist 2.17521 0 0
lhand -10.5949 9.65639 0
lfingers 7.12502 0 0
lthumb 15.4107 39.062 0
rclavicle -1.65488e-14 -3.69739e-14 0
rhumerus -43.273 -4.86223 -84.2703
rradius 40.4763 0 0
rwrist 9.89469 0 0
rhand -23.7965 -22.476 0
rfingers 7.12502 0 0
rthumb 2.67393 -52.439 0
2
root 6.23892 16.8368 -28.1369 9.03612 -2.51791 -3.04437
lfemur -20.3706 2.29046 -19.993
ltibia 35.9 -0 0
lfoot -38.6111 3.94181 0.000134747
ltoes 38.9059 -0 0
rfemur -19.4417 0.300254 19.5232
rtibia 35.9621 -0 0
rfoot -30.3357 -10.6033 -0.00303339
rtoes 21.3177 -0 0
lowerback -2.09809 3.65044 -4.9766
upperback -2.65611 4.9788 3.4504
thorax -2.31645 2.65341 6.3492
lowerneck -9.84261 -2.35778 1.961
upperneck -1.40001 -3.31306 -1.61713
head 1.15746 -1.69143 -0.965661
lclavicle -1.59899e-14 -3.6359e-14 -2.31614e-31
lhumerus -41.7221 -10.842 99.7883
lradius 34.583 -0 0
lwrist 2.23221 0 0
lhand -10.6119 9.5773 0.000904462
lfingers 7.12502 -0 0
lthumb 15.3944 38.9841 0.000858146
rclavicle -1.59899e-14 -3.6359e-14 -2.31614e-31
rhumerus -43.2339 -4.86667 -84.3399
rradius 40.4561 -0 0
rwrist 9.90874 0 0
rhand -23.834 -22.448 -0.000705905
rfingers 7.12502 -0 0
rthumb 2.63776 -52.4113 -0.000676582
3
root 6.23401 16.8377 -28.1356 9.05183 -2.50497 -3.0298
lfemur -20.37 2.27726 -19.9903
ltibia 35.8705 -0 0
lfoot -38.5643 3.94688 0.000277606
ltoes 38.8534 -0 0
rfemur -19.4057 0.387498 19.5205
rtibia 35.8836 -0 0
rfoot -30.2898 -10.7194 -0.00624953
rtoes 21.1755 -0 0
lowerback -2.14894 3.6295 -4.91006
upperback -2.64392 4.95184 3.4042
thorax -2.26465 2.63515 6.26723
lowerneck -9.83783 -2.34596 1.97501
upperneck -1.42253 -3.29958 -1.57716
head 1.14998 -1.68403 -0.954763
lclavicle -1.5381e-14 -3.56889e-14 -4.77167e-31
lhumerus -41.7185 -10.8739 99.7416
lradius 34.6632 -0 0
lwrist 2.29431 0 0
lhand -10.6303 9.49111 0.00186339
lfingers 7.12502 -0 0
lthumb 15.3766 38.8992 0.00176796
rclavicle -1.5381e-14 -3.56889e-14 -4.77167e-31
rhumerus -43.1912 -4.87144 -84.4156
rradius 40.434 -0 0
rwrist 9.92405 0 0
rhand -23.8748 -22.4176 -0.0014543
rfingers 7.12502 -0 0
rthumb 2.59834 -52.381 -0.00139389
4
root 6.22845 16.8387 -28.1338 9.06879 -2.491 -3.01407
lfemur -20.3693 2.26302 -19.9874
ltibia 35.8387 -0 0
lfoot -38.5138 3.95236 0.000427127
ltoes 38.7967 -0 0
rfemur -19.3668 0.481651 19.5178
rtibia 35.7989 -0 0
rfoot -30.2402 -10.8447 -0.00961581
rtoes 21.022 -0 0
lowerback -2.20385 3.60697 -4.83822
upperback -2.63075 4.92275 3.35434
thorax -2.20872 2.61553 6.17875
lowerneck -9.83268 -2.33319 1.99012
upperneck -1.44683 -3.28501 -1.53403
head 1.1419 -1.67603 -0.943003
lclavicle -1.47238e-14 -3.49658e-14 -7.34171e-31
lhumerus -41.7147 -10.9082 99.6911
lradius 34.7497 -0 0
lwrist 2.36134 0 0
lhand -10.6503 9.3981 0.00286705
lfingers 7.12502 -0 0
lthumb 15.3574 38.8076 0.00272023
rclavicle -1.47238e-14 -3.49658e-14 -7.34171e-31
rhumerus -43.1451 -4.87654 -84.4974
rradius 40.4102 -0 0
rwrist 9.94057 0 0
rhand -23.9188 -22.3847 -0.00223761
rfingers 7.12502 -0 0
rthumb 2.5558 -52.3484 -0.00214465
5
root 6.22228 16.8398 -28.1317 9.08695 -2.47606 -2.99723
lfemur -20.3685 2.24778 -19.9843
ltibia 35.8046 -0 0
lfoot -38.4598 3.95822 0.000581837
ltoes 38.736 -0 0
rfemur -19.3253 0.582441 19.5149
rtibia 35.7082 -0 0
rfoot -30.1871 -10.9789 -0.0130991
rtoes 20.8576 -0 0
lowerback -2.26265 3.58293 -4.7613
upperback -2.61661 4.89163 3.30096
thorax -2.14881 2.59462 6.08402
lowerneck -9.82715 -2.31953 2.0063
upperneck -1.47283 -3.2694 -1.48787
head 1.13326 -1.66747 -0.930416
lclavicle -1.40203e-14 -3.41917e-14 -1.00009e-30
lhumerus -41.7105 -10.945 99.6371
lradius 34.8423 -0 0
lwrist 2.43309 0 0
lhand -10.6716 9.29854 0.00390557
lfingers 7.12502 -0 0
lthumb 15.3368 38.7096 0.00370557
rclavicle -1.40203e-14 -3.41917e-14 -1.00009e-30
rhumerus -43.0958 -4.88192 -84.585
rradius 40.3848 -0 0
rwrist 9.95826 0 0
rhand -23.966 -22.3495 -0.0030481
rfingers 7.12502 -0 0
rthumb 2.51026 -52.3135 -0.00292148
6
root 6.21554 16.8409 -28.1292 9.10625 -2.46018 -2.97932
lfemur -20.3678 2.23158 -19.9811
ltibia 35.7684 -0 0
lfoot -38.4024 3.96445 0.00074025
ltoes 38.6715 -0 0
rfemur -19.2811 0.689595 19.5119
rtibia 35.6118 -0 0
rfoot -30.1307 -11.1215 -0.016666
rtoes 20.6829 -0 0
lowerback -2.3252 3.55745 -4.6795
upperback -2.60156 4.85855 3.24421
thorax -2.08509 2.5725 5.98329
lowerneck -9.82128 -2.30501 2.02351
upperneck -1.50045 -3.25277 -1.43881
head 1.12408 -1.65837 -0.917036
lclavicle -1.32724e-14 -3.33688e-14 -1.27238e-30
lhumerus -41.7061 -10.9841 99.5797
lradius 34.9408 -0 0
lwrist 2.50936 0 0
lhand -10.6943 9.19269 0.00496897
lfingers 7.12502 -0 0
lthumb 15.3149 38.6053 0.00471451
rclavicle -1.32724e-14 -3.33688e-14 -1.27238e-30
rhumerus -43.0434 -4.88756 -84.6781
rradius 40.3577 -0 0
rwrist 9.97707 0 0
rhand -24.0161 -22.3121 -0.00387798
rfingers 7.12502 -0 0
rthumb 2.46185 -52.2763 -0.00371689
7
root 6.20827 16.8421 -28.1265 9.12667 -2.44341 -2.96039
lfemur -20.3669 2.21445 -19.9776
ltibia 35.7302 -0 0
lfoot -38.3417 3.97104 0.000900875
ltoes 38.6033 -0 0
rfemur -19.2344 0.80284 19.5089
rtibia 35.5098 -0 0
rfoot -30.071 -11.2722 -0.0202828
rtoes 20.4983 -0 0
lowerback -2.39134 3.53063 -4.59303
upperback -2.58561 4.82362 3.18422
thorax -2.01771 2.54924 5.87681
lowerneck -9.81506 -2.28966 2.04169
upperneck -1.52963 -3.23518 -1.38696
head 1.11438 -1.64875 -0.902897
lclavicle -1.2482e-14 -3.24991e-14 -1.54846e-30
lhumerus -41.7013 -11.0254 99.519
lradius 35.0448 -0 0
lwrist 2.58997 0 0
lhand -10.7183 9.08083 0.00604724
lfingers 7.12502 -0 0
lthumb 15.2918 38.4952 0.00573755
rclavicle -1.2482e-14 -3.24991e-14 -1.54846e-30
rhumerus -42.988 -4.89342 -84.7765
rradius 40.3291 -0 0
rwrist 9.99694 0 0
rhand -24.0691 -22.2726 -0.00471946
rfingers 7.12502 -0 0
rthumb 2.41069 -52.2371 -0.00452341
8
root 6.2005 16.8433 -28.1234 9.14813 -2.42578 -2.94048
lfemur -20.3661 2.19644 -19.974
ltibia 35.69 -0 0
lfoot -38.2778 3.97796 0.00106222
ltoes 38.5316 -0 0
rfemur -19.1853 0.921905 19.5058
rtibia 35.4027 -0 0
rfoot -30.0083 -11.4307 -0.0239161
rtoes 20.3042 -0 0
lowerback -2.46092 3.50253 -4.50208
upperback -2.5688 4.78691 3.12115
thorax -1.94681 2.52492 5.76483
lowerneck -9.80852 -2.27353 2.06081
upperneck -1.56028 -3.21666 -1.33247
head 1.10418 -1.63863 -0.888034
lclavicle -1.1651e-14 -3.15848e-14 -1.82578e-30
lhumerus -41.6963 -11.0688 99.4551
lradius 35.1542 -0 0
lwrist 2.67472 0 0
lhand -10.7435 8.96322 0.00713039
lfingers 7.12502 -0 0
lthumb 15.2675 38.3793 0.00676523
rclavicle -1.1651e-14 -3.15848e-14 -1.82578e-30
rhumerus -42.9297 -4.89949 -84.88
rradius 40.299 -0 0
rwrist 10.0178 0 0
rhand -24.1247 -22.231 -0.00556473
rfingers 7.12502 -0 0
rthumb 2.3569 -52.1958 -0.00533356
9
root 6.19228 16.8446 -28.1201 9.1706 -2.40734 -2.91963
lfemur -20.3652 2.1776 -19.9702
ltibia 35.6479 -0 0
lfoot -38.211 3.98521 0.00122282
ltoes 38.4566 -0 0
rfemur -19.1339 1.04652 19.5026
rtibia 35.2906 -0 0
rfoot -29.9426 -11.5965 -0.0275328
rtoes 20.101 -0 0
lowerback -2.53378 3.47325 -4.40687
upperback -2.55117 4.7485 3.05513
thorax -1.87257 2.49962 5.6476
lowerneck -9.80167 -2.25665 2.08082
upperneck -1.59235 -3.19724 -1.27545
head 1.0935 -1.62803 -0.872481
lclavicle -1.07813e-14 -3.06278e-14 -2.10182e-30
lhumerus -41.6909 -11.1142 99.3883
lradius 35.2687 -0 0
lwrist 2.76342 0 0
lhand -10.7699 8.84013 0.00820855
lfingers 7.12502 -0 0
lthumb 15.2421 38.2581 0.00778817
rclavicle -1.07813e-14 -3.06278e-14 -2.10182e-30
rhumerus -42.8687 -4.90573 -84.9883
rradius 40.2675 -0 0
rwrist 10.0397 0 0
rhand -24.183 -22.1875 -0.00640608
rfingers 7.12502 -0 0
rthumb 2.3006 -52.1527 -0.00613996
10
root 6.18365 16.846 -28.1166 9.19403 -2.38813 -2.8979
lfemur -20.3642 2.15795 -19.9662
ltibia 35.604 -0 0
lfoot -38.1414 3.99277 0.00138123
ltoes 38.3784 -0 0
rfemur -19.0804 1.1764 19.4994
rtibia 35.1737 -0 0
rfoot -29.8742 -11.7694 -0.0311001
rtoes 19.8893 -0 0
lowerback -2.60978 3.44285 -4.30759
upperback -2.53275 4.7085 2.98631
thorax -1.79513 2.47342 5.52539
lowerneck -9.79452 -2.23906 2.10168
upperneck -1.62575 -3.17696 -1.21602
head 1.08238 -1.61699 -0.856272
lclavicle -9.87478e-15 -2.96304e-14 -2.37407e-30
lhumerus -41.6853 -11.1616 99.3187
lradius 35.3881 -0 0
lwrist 2.85587 0 0
lhand -10.7974 8.71184 0.00927196
lfingers 7.12502 -0 0
lthumb 15.2156 38.1318 0.00879712
rclavicle -9.87478e-15 -2.96304e-14 -2.37407e-30
rhumerus -42.8051 -4.9121 -85.1011
rradius 40.2347 -0 0
rwrist 10.0625 0 0
rhand -24.2438 -22.1421 -0.00723591
rfingers 7.12502 -0 0
rthumb 2.24192 -52.1077 -0.00693532
